<?xml version="1.0" encoding="utf-8" standalone="no"?>
<!DOCTYPE svg PUBLIC "-//W3C//DTD SVG 1.1//EN"
  "http://www.w3.org/Graphics/SVG/1.1/DTD/svg11.dtd">
<svg xmlns:xlink="http://www.w3.org/1999/xlink" width="958.79952pt" height="368.39952pt" viewBox="0 0 958.79952 368.39952" xmlns="http://www.w3.org/2000/svg" version="1.1">
 <metadata>
  <rdf:RDF xmlns:dc="http://purl.org/dc/elements/1.1/" xmlns:cc="http://creativecommons.org/ns#" xmlns:rdf="http://www.w3.org/1999/02/22-rdf-syntax-ns#">
   <cc:Work>
    <dc:type rdf:resource="http://purl.org/dc/dcmitype/StillImage"/>
    <dc:date>2026-08-13</dc:date>
    <dc:format>image/svg+xml</dc:format>
    <dc:creator>
     <cc:Agent>
      <dc:title>Matplotlib v3.11.1, https://matplotlib.org/</dc:title>
     </cc:Agent>
    </dc:creator>
   </cc:Work>
  </rdf:RDF>
 </metadata>
 <defs>
  <style type="text/css">*{stroke-linejoin: round; stroke-linecap: butt}</style>
 </defs>
 <g id="figure_1">
  <g id="patch_1">
   <path d="M 0 368.39952
L 958.79952 368.39952
L 958.79952 0
L 0 0
z
" style="fill: #ffffff"/>
  </g>
  <g id="axes_1">
   <g id="patch_2">
    <path d="M 43.30875 330.698739
L 456.660852 330.698739
L 456.660852 41.939777
L 43.30875 41.939777
z
" style="fill: #ffffff"/>
   </g>
   <g id="matplotlib.axis_1">
    <g id="xtick_1">
     <g id="line2d_1">
      <defs>
       <path id="m2ff2eba125" d="M 0 0
L 0 3.5
" style="stroke: #000000; stroke-width: 0.8"/>
      </defs>
      <g>
       <use xlink:href="#m2ff2eba125" x="62.097482" y="330.698739" style="stroke: #000000; stroke-width: 0.8"/>
      </g>
     </g>
     <g id="text_1">
      <text style="font-size: 9.5px; font-family: 'DejaVu Sans'; text-anchor: middle" x="62.097482" y="344.916512" transform="rotate(-0 62.097482 344.916512)">0</text>
     </g>
    </g>
    <g id="xtick_2">
     <g id="line2d_2">
      <g>
       <use xlink:href="#m2ff2eba125" x="112.200767" y="330.698739" style="stroke: #000000; stroke-width: 0.8"/>
      </g>
     </g>
     <g id="text_2">
      <text style="font-size: 9.5px; font-family: 'DejaVu Sans'; text-anchor: middle" x="112.200767" y="344.916512" transform="rotate(-0 112.200767 344.916512)">200</text>
     </g>
    </g>
    <g id="xtick_3">
     <g id="line2d_3">
      <g>
       <use xlink:href="#m2ff2eba125" x="162.304052" y="330.698739" style="stroke: #000000; stroke-width: 0.8"/>
      </g>
     </g>
     <g id="text_3">
      <text style="font-size: 9.5px; font-family: 'DejaVu Sans'; text-anchor: middle" x="162.304052" y="344.916512" transform="rotate(-0 162.304052 344.916512)">400</text>
     </g>
    </g>
    <g id="xtick_4">
     <g id="line2d_4">
      <g>
       <use xlink:href="#m2ff2eba125" x="212.407337" y="330.698739" style="stroke: #000000; stroke-width: 0.8"/>
      </g>
     </g>
     <g id="text_4">
      <text style="font-size: 9.5px; font-family: 'DejaVu Sans'; text-anchor: middle" x="212.407337" y="344.916512" transform="rotate(-0 212.407337 344.916512)">600</text>
     </g>
    </g>
    <g id="xtick_5">
     <g id="line2d_5">
      <g>
       <use xlink:href="#m2ff2eba125" x="262.510622" y="330.698739" style="stroke: #000000; stroke-width: 0.8"/>
      </g>
     </g>
     <g id="text_5">
      <text style="font-size: 9.5px; font-family: 'DejaVu Sans'; text-anchor: middle" x="262.510622" y="344.916512" transform="rotate(-0 262.510622 344.916512)">800</text>
     </g>
    </g>
    <g id="xtick_6">
     <g id="line2d_6">
      <g>
       <use xlink:href="#m2ff2eba125" x="312.613907" y="330.698739" style="stroke: #000000; stroke-width: 0.8"/>
      </g>
     </g>
     <g id="text_6">
      <text style="font-size: 9.5px; font-family: 'DejaVu Sans'; text-anchor: middle" x="312.613907" y="344.916512" transform="rotate(-0 312.613907 344.916512)">1000</text>
     </g>
    </g>
    <g id="xtick_7">
     <g id="line2d_7">
      <g>
       <use xlink:href="#m2ff2eba125" x="362.717192" y="330.698739" style="stroke: #000000; stroke-width: 0.8"/>
      </g>
     </g>
     <g id="text_7">
      <text style="font-size: 9.5px; font-family: 'DejaVu Sans'; text-anchor: middle" x="362.717192" y="344.916512" transform="rotate(-0 362.717192 344.916512)">1200</text>
     </g>
    </g>
    <g id="xtick_8">
     <g id="line2d_8">
      <g>
       <use xlink:href="#m2ff2eba125" x="412.820477" y="330.698739" style="stroke: #000000; stroke-width: 0.8"/>
      </g>
     </g>
     <g id="text_8">
      <text style="font-size: 9.5px; font-family: 'DejaVu Sans'; text-anchor: middle" x="412.820477" y="344.916512" transform="rotate(-0 412.820477 344.916512)">1400</text>
     </g>
    </g>
    <g id="text_9">
     <text style="font-size: 10px; font-family: 'DejaVu Sans'; text-anchor: middle" x="249.984801" y="358.797176" transform="rotate(-0 249.984801 358.797176)">Optimizer steps</text>
    </g>
   </g>
   <g id="matplotlib.axis_2">
    <g id="ytick_1">
     <g id="line2d_9">
      <path d="M 43.30875 317.573331
L 456.660852 317.573331
" clip-path="url(#pa1001f7743)" style="fill: none; stroke: #b0b0b0; stroke-opacity: 0.25; stroke-width: 0.8; stroke-linecap: square"/>
     </g>
     <g id="line2d_10">
      <defs>
       <path id="mb26b7bbba3" d="M 0 0
L -3.5 0
" style="stroke: #000000; stroke-width: 0.8"/>
      </defs>
      <g>
       <use xlink:href="#mb26b7bbba3" x="43.30875" y="317.573331" style="stroke: #000000; stroke-width: 0.8"/>
      </g>
     </g>
     <g id="text_10">
      <text style="font-size: 9.5px; font-family: 'DejaVu Sans'; text-anchor: end" x="36.30875" y="321.182218" transform="rotate(-0 36.30875 321.182218)">0.0</text>
     </g>
    </g>
    <g id="ytick_2">
     <g id="line2d_11">
      <path d="M 43.30875 263.811663
L 456.660852 263.811663
" clip-path="url(#pa1001f7743)" style="fill: none; stroke: #b0b0b0; stroke-opacity: 0.25; stroke-width: 0.8; stroke-linecap: square"/>
     </g>
     <g id="line2d_12">
      <g>
       <use xlink:href="#mb26b7bbba3" x="43.30875" y="263.811663" style="stroke: #000000; stroke-width: 0.8"/>
      </g>
     </g>
     <g id="text_11">
      <text style="font-size: 9.5px; font-family: 'DejaVu Sans'; text-anchor: end" x="36.30875" y="267.42055" transform="rotate(-0 36.30875 267.42055)">0.2</text>
     </g>
    </g>
    <g id="ytick_3">
     <g id="line2d_13">
      <path d="M 43.30875 210.049994
L 456.660852 210.049994
" clip-path="url(#pa1001f7743)" style="fill: none; stroke: #b0b0b0; stroke-opacity: 0.25; stroke-width: 0.8; stroke-linecap: square"/>
     </g>
     <g id="line2d_14">
      <g>
       <use xlink:href="#mb26b7bbba3" x="43.30875" y="210.049994" style="stroke: #000000; stroke-width: 0.8"/>
      </g>
     </g>
     <g id="text_12">
      <text style="font-size: 9.5px; font-family: 'DejaVu Sans'; text-anchor: end" x="36.30875" y="213.658881" transform="rotate(-0 36.30875 213.658881)">0.4</text>
     </g>
    </g>
    <g id="ytick_4">
     <g id="line2d_15">
      <path d="M 43.30875 156.288326
L 456.660852 156.288326
" clip-path="url(#pa1001f7743)" style="fill: none; stroke: #b0b0b0; stroke-opacity: 0.25; stroke-width: 0.8; stroke-linecap: square"/>
     </g>
     <g id="line2d_16">
      <g>
       <use xlink:href="#mb26b7bbba3" x="43.30875" y="156.288326" style="stroke: #000000; stroke-width: 0.8"/>
      </g>
     </g>
     <g id="text_13">
      <text style="font-size: 9.5px; font-family: 'DejaVu Sans'; text-anchor: end" x="36.30875" y="159.897212" transform="rotate(-0 36.30875 159.897212)">0.6</text>
     </g>
    </g>
    <g id="ytick_5">
     <g id="line2d_17">
      <path d="M 43.30875 102.526657
L 456.660852 102.526657
" clip-path="url(#pa1001f7743)" style="fill: none; stroke: #b0b0b0; stroke-opacity: 0.25; stroke-width: 0.8; stroke-linecap: square"/>
     </g>
     <g id="line2d_18">
      <g>
       <use xlink:href="#mb26b7bbba3" x="43.30875" y="102.526657" style="stroke: #000000; stroke-width: 0.8"/>
      </g>
     </g>
     <g id="text_14">
      <text style="font-size: 9.5px; font-family: 'DejaVu Sans'; text-anchor: end" x="36.30875" y="106.135544" transform="rotate(-0 36.30875 106.135544)">0.8</text>
     </g>
    </g>
    <g id="ytick_6">
     <g id="line2d_19">
      <path d="M 43.30875 48.764989
L 456.660852 48.764989
" clip-path="url(#pa1001f7743)" style="fill: none; stroke: #b0b0b0; stroke-opacity: 0.25; stroke-width: 0.8; stroke-linecap: square"/>
     </g>
     <g id="line2d_20">
      <g>
       <use xlink:href="#mb26b7bbba3" x="43.30875" y="48.764989" style="stroke: #000000; stroke-width: 0.8"/>
      </g>
     </g>
     <g id="text_15">
      <text style="font-size: 9.5px; font-family: 'DejaVu Sans'; text-anchor: end" x="36.30875" y="52.373875" transform="rotate(-0 36.30875 52.373875)">1.0</text>
     </g>
    </g>
    <g id="text_16">
     <text style="font-size: 10px; font-family: 'DejaVu Sans'; text-anchor: middle" x="14.798438" y="186.319258" transform="rotate(-90 14.798438 186.319258)">Accuracy change from frozen base (points)</text>
    </g>
   </g>
   <g id="line2d_21">
    <path d="M 62.097482 317.573331
L 112.200767 107.566814
L 162.304052 81.315999
L 212.407337 238.820887
L 262.510622 133.817628
L 312.613907 160.068443
L 362.717192 55.065184
L 412.820477 81.315999
L 437.87212 81.315999
" clip-path="url(#pa1001f7743)" style="fill: none; stroke: #2878b5; stroke-width: 2; stroke-linecap: square"/>
    <defs>
     <path id="me1d44f7e42" d="M 0 2
C 0.530406 2 1.03916 1.789267 1.414214 1.414214
C 1.789267 1.03916 2 0.530406 2 0
C 2 -0.530406 1.789267 -1.03916 1.414214 -1.414214
C 1.03916 -1.789267 0.530406 -2 0 -2
C -0.530406 -2 -1.03916 -1.789267 -1.414214 -1.414214
C -1.789267 -1.03916 -2 -0.530406 -2 0
C -2 0.530406 -1.789267 1.03916 -1.414214 1.414214
C -1.03916 1.789267 -0.530406 2 0 2
z
" style="stroke: #2878b5"/>
    </defs>
    <g clip-path="url(#pa1001f7743)">
     <use xlink:href="#me1d44f7e42" x="62.097482" y="317.573331" style="fill: #2878b5; stroke: #2878b5"/>
     <use xlink:href="#me1d44f7e42" x="112.200767" y="107.566814" style="fill: #2878b5; stroke: #2878b5"/>
     <use xlink:href="#me1d44f7e42" x="162.304052" y="81.315999" style="fill: #2878b5; stroke: #2878b5"/>
     <use xlink:href="#me1d44f7e42" x="212.407337" y="238.820887" style="fill: #2878b5; stroke: #2878b5"/>
     <use xlink:href="#me1d44f7e42" x="262.510622" y="133.817628" style="fill: #2878b5; stroke: #2878b5"/>
     <use xlink:href="#me1d44f7e42" x="312.613907" y="160.068443" style="fill: #2878b5; stroke: #2878b5"/>
     <use xlink:href="#me1d44f7e42" x="362.717192" y="55.065184" style="fill: #2878b5; stroke: #2878b5"/>
     <use xlink:href="#me1d44f7e42" x="412.820477" y="81.315999" style="fill: #2878b5; stroke: #2878b5"/>
     <use xlink:href="#me1d44f7e42" x="437.87212" y="81.315999" style="fill: #2878b5; stroke: #2878b5"/>
    </g>
   </g>
   <g id="line2d_22">
    <path d="M 62.097482 317.573331
L 112.200767 107.566814
L 162.304052 186.319258
L 212.407337 186.319258
L 262.510622 107.566814
L 312.613907 186.319258
L 362.717192 160.068443
L 412.820477 133.817628
" clip-path="url(#pa1001f7743)" style="fill: none; stroke: #d95f02; stroke-width: 2; stroke-linecap: square"/>
    <defs>
     <path id="m885f63d004" d="M 0 2
C 0.530406 2 1.03916 1.789267 1.414214 1.414214
C 1.789267 1.03916 2 0.530406 2 0
C 2 -0.530406 1.789267 -1.03916 1.414214 -1.414214
C 1.03916 -1.789267 0.530406 -2 0 -2
C -0.530406 -2 -1.03916 -1.789267 -1.414214 -1.414214
C -1.789267 -1.03916 -2 -0.530406 -2 0
C -2 0.530406 -1.789267 1.03916 -1.414214 1.414214
C -1.03916 1.789267 -0.530406 2 0 2
z
" style="stroke: #d95f02"/>
    </defs>
    <g clip-path="url(#pa1001f7743)">
     <use xlink:href="#m885f63d004" x="62.097482" y="317.573331" style="fill: #d95f02; stroke: #d95f02"/>
     <use xlink:href="#m885f63d004" x="112.200767" y="107.566814" style="fill: #d95f02; stroke: #d95f02"/>
     <use xlink:href="#m885f63d004" x="162.304052" y="186.319258" style="fill: #d95f02; stroke: #d95f02"/>
     <use xlink:href="#m885f63d004" x="212.407337" y="186.319258" style="fill: #d95f02; stroke: #d95f02"/>
     <use xlink:href="#m885f63d004" x="262.510622" y="107.566814" style="fill: #d95f02; stroke: #d95f02"/>
     <use xlink:href="#m885f63d004" x="312.613907" y="186.319258" style="fill: #d95f02; stroke: #d95f02"/>
     <use xlink:href="#m885f63d004" x="362.717192" y="160.068443" style="fill: #d95f02; stroke: #d95f02"/>
     <use xlink:href="#m885f63d004" x="412.820477" y="133.817628" style="fill: #d95f02; stroke: #d95f02"/>
    </g>
   </g>
   <g id="line2d_23">
    <path d="M 62.097482 317.573331
L 112.200767 160.068443
L 162.304052 160.068443
" clip-path="url(#pa1001f7743)" style="fill: none; stroke-dasharray: 7.4,3.2; stroke-dashoffset: 0; stroke: #708238; stroke-width: 2"/>
    <defs>
     <path id="mc420822864" d="M 0 2
C 0.530406 2 1.03916 1.789267 1.414214 1.414214
C 1.789267 1.03916 2 0.530406 2 0
C 2 -0.530406 1.789267 -1.03916 1.414214 -1.414214
C 1.03916 -1.789267 0.530406 -2 0 -2
C -0.530406 -2 -1.03916 -1.789267 -1.414214 -1.414214
C -1.789267 -1.03916 -2 -0.530406 -2 0
C -2 0.530406 -1.789267 1.03916 -1.414214 1.414214
C -1.03916 1.789267 -0.530406 2 0 2
z
" style="stroke: #708238"/>
    </defs>
    <g clip-path="url(#pa1001f7743)">
     <use xlink:href="#mc420822864" x="62.097482" y="317.573331" style="fill: #708238; stroke: #708238"/>
     <use xlink:href="#mc420822864" x="112.200767" y="160.068443" style="fill: #708238; stroke: #708238"/>
     <use xlink:href="#mc420822864" x="162.304052" y="160.068443" style="fill: #708238; stroke: #708238"/>
    </g>
   </g>
   <g id="line2d_24">
    <path d="M 43.30875 317.573331
L 456.660852 317.573331
" clip-path="url(#pa1001f7743)" style="fill: none; stroke: #444444; stroke-linecap: square"/>
   </g>
   <g id="patch_3">
    <path d="M 43.30875 330.698739
L 43.30875 41.939777
" style="fill: none; stroke: #000000; stroke-width: 0.8; stroke-linejoin: miter; stroke-linecap: square"/>
   </g>
   <g id="patch_4">
    <path d="M 456.660852 330.698739
L 456.660852 41.939777
" style="fill: none; stroke: #000000; stroke-width: 0.8; stroke-linejoin: miter; stroke-linecap: square"/>
   </g>
   <g id="patch_5">
    <path d="M 43.30875 330.698739
L 456.660852 330.698739
" style="fill: none; stroke: #000000; stroke-width: 0.8; stroke-linejoin: miter; stroke-linecap: square"/>
   </g>
   <g id="patch_6">
    <path d="M 43.30875 41.939777
L 456.660852 41.939777
" style="fill: none; stroke: #000000; stroke-width: 0.8; stroke-linejoin: miter; stroke-linecap: square"/>
   </g>
   <g id="text_17">
    <text style="font-size: 8px; font-family: 'DejaVu Sans'; text-anchor: start; fill: #2878b5" x="441.87212" y="74.315999" transform="rotate(-0 441.87212 74.315999)">stop 1,500</text>
   </g>
   <g id="text_18">
    <text style="font-size: 8px; font-family: 'DejaVu Sans'; text-anchor: start; fill: #d95f02" x="416.820477" y="148.817628" transform="rotate(-0 416.820477 148.817628)">stop 1,400</text>
   </g>
   <g id="text_19">
    <text style="font-size: 8px; font-family: 'DejaVu Sans'; text-anchor: start; fill: #708238" x="166.304052" y="153.068443" transform="rotate(-0 166.304052 153.068443)">stop 400</text>
   </g>
   <g id="text_20">
    <text style="font-size: 11.5px; font-family: 'DejaVu Sans'; text-anchor: middle" x="249.984801" y="35.939777" transform="rotate(-0 249.984801 35.939777)">DEV task trajectory</text>
   </g>
   <g id="PathCollection_1">
    <defs>
     <path id="mc57384cca8" d="M -2.09165 4.1833
L 0 2.09165
L 2.09165 4.1833
L 4.1833 2.09165
L 2.09165 0
L 4.1833 -2.09165
L 2.09165 -4.1833
L 0 -2.09165
L -2.09165 -4.1833
L -4.1833 -2.09165
L -2.09165 0
L -4.1833 2.09165
z
" style="stroke: #2878b5"/>
    </defs>
    <g clip-path="url(#pa1001f7743)">
     <use xlink:href="#mc57384cca8" x="437.87212" y="81.315999" style="fill: #2878b5; stroke: #2878b5"/>
    </g>
   </g>
   <g id="PathCollection_2">
    <defs>
     <path id="mf3b0e253b5" d="M -2.09165 4.1833
L 0 2.09165
L 2.09165 4.1833
L 4.1833 2.09165
L 2.09165 0
L 4.1833 -2.09165
L 2.09165 -4.1833
L 0 -2.09165
L -2.09165 -4.1833
L -4.1833 -2.09165
L -2.09165 0
L -4.1833 2.09165
z
" style="stroke: #d95f02"/>
    </defs>
    <g clip-path="url(#pa1001f7743)">
     <use xlink:href="#mf3b0e253b5" x="412.820477" y="133.817628" style="fill: #d95f02; stroke: #d95f02"/>
    </g>
   </g>
   <g id="PathCollection_3">
    <defs>
     <path id="mb1a6b57bbe" d="M -2.09165 4.1833
L 0 2.09165
L 2.09165 4.1833
L 4.1833 2.09165
L 2.09165 0
L 4.1833 -2.09165
L 2.09165 -4.1833
L 0 -2.09165
L -2.09165 -4.1833
L -4.1833 -2.09165
L -2.09165 0
L -4.1833 2.09165
z
" style="stroke: #708238"/>
    </defs>
    <g clip-path="url(#pa1001f7743)">
     <use xlink:href="#mb1a6b57bbe" x="162.304052" y="160.068443" style="fill: #708238; stroke: #708238"/>
    </g>
   </g>
   <g id="legend_1">
    <g id="line2d_25">
     <path d="M 364.078898 288.040028
L 373.578898 288.040028
L 383.078898 288.040028
" style="fill: none; stroke: #2878b5; stroke-width: 2; stroke-linecap: square"/>
     <g>
      <use xlink:href="#me1d44f7e42" x="373.578898" y="288.040028" style="fill: #2878b5; stroke: #2878b5"/>
     </g>
    </g>
    <g id="text_21">
     <text style="font-size: 9.5px; font-family: 'DejaVu Sans'; text-anchor: start" x="390.678898" y="291.365028" transform="rotate(-0 390.678898 291.365028)">Main seed 0</text>
    </g>
    <g id="line2d_26">
     <path d="M 364.078898 302.29077
L 373.578898 302.29077
L 383.078898 302.29077
" style="fill: none; stroke: #d95f02; stroke-width: 2; stroke-linecap: square"/>
     <g>
      <use xlink:href="#m885f63d004" x="373.578898" y="302.29077" style="fill: #d95f02; stroke: #d95f02"/>
     </g>
    </g>
    <g id="text_22">
     <text style="font-size: 9.5px; font-family: 'DejaVu Sans'; text-anchor: start" x="390.678898" y="305.61577" transform="rotate(-0 390.678898 305.61577)">Main seed 1</text>
    </g>
    <g id="line2d_27">
     <path d="M 364.078898 316.541512
L 373.578898 316.541512
L 383.078898 316.541512
" style="fill: none; stroke-dasharray: 7.4,3.2; stroke-dashoffset: 0; stroke: #708238; stroke-width: 2"/>
     <g>
      <use xlink:href="#mc420822864" x="373.578898" y="316.541512" style="fill: #708238; stroke: #708238"/>
     </g>
    </g>
    <g id="text_23">
     <text style="font-size: 9.5px; font-family: 'DejaVu Sans'; text-anchor: start" x="390.678898" y="319.866512" transform="rotate(-0 390.678898 319.866512)">Slot seed 0</text>
    </g>
   </g>
  </g>
  <g id="axes_2">
   <g id="patch_7">
    <path d="M 538.247418 330.698739
L 951.59952 330.698739
L 951.59952 41.939777
L 538.247418 41.939777
z
" style="fill: #ffffff"/>
   </g>
   <g id="patch_8">
    <path d="M 557.03615 203.734847
L 572.802918 203.734847
L 572.802918 203.734847
L 557.03615 203.734847
z
" clip-path="url(#p0871b4ebf2)" style="fill: #2878b5"/>
   </g>
   <g id="patch_9">
    <path d="M 622.731017 203.734847
L 638.497785 203.734847
L 638.497785 192.023069
L 622.731017 192.023069
z
" clip-path="url(#p0871b4ebf2)" style="fill: #2878b5"/>
   </g>
   <g id="patch_10">
    <path d="M 688.425884 203.734847
L 704.192652 203.734847
L 704.192652 207.591164
L 688.425884 207.591164
z
" clip-path="url(#p0871b4ebf2)" style="fill: #2878b5"/>
   </g>
   <g id="patch_11">
    <path d="M 754.120751 203.734847
L 769.887519 203.734847
L 769.887519 97.542231
L 754.120751 97.542231
z
" clip-path="url(#p0871b4ebf2)" style="fill: #2878b5"/>
   </g>
   <g id="patch_12">
    <path d="M 819.815617 203.734847
L 835.582385 203.734847
L 835.582385 174.575399
L 819.815617 174.575399
z
" clip-path="url(#p0871b4ebf2)" style="fill: #2878b5"/>
   </g>
   <g id="patch_13">
    <path d="M 885.510484 203.734847
L 901.277252 203.734847
L 901.277252 317.573331
L 885.510484 317.573331
z
" clip-path="url(#p0871b4ebf2)" style="fill: #2878b5"/>
   </g>
   <g id="patch_14">
    <path d="M 572.802918 203.734847
L 588.569686 203.734847
L 588.569686 203.734847
L 572.802918 203.734847
z
" clip-path="url(#p0871b4ebf2)" style="fill: #d95f02"/>
   </g>
   <g id="patch_15">
    <path d="M 638.497785 203.734847
L 654.264553 203.734847
L 654.264553 192.023069
L 638.497785 192.023069
z
" clip-path="url(#p0871b4ebf2)" style="fill: #d95f02"/>
   </g>
   <g id="patch_16">
    <path d="M 704.192652 203.734847
L 719.95942 203.734847
L 719.95942 219.160116
L 704.192652 219.160116
z
" clip-path="url(#p0871b4ebf2)" style="fill: #d95f02"/>
   </g>
   <g id="patch_17">
    <path d="M 769.887519 203.734847
L 785.654287 203.734847
L 785.654287 55.065184
L 769.887519 55.065184
z
" clip-path="url(#p0871b4ebf2)" style="fill: #d95f02"/>
   </g>
   <g id="patch_18">
    <path d="M 835.582385 203.734847
L 851.349153 203.734847
L 851.349153 180.407289
L 835.582385 180.407289
z
" clip-path="url(#p0871b4ebf2)" style="fill: #d95f02"/>
   </g>
   <g id="patch_19">
    <path d="M 901.277252 203.734847
L 917.04402 203.734847
L 917.04402 317.573331
L 901.277252 317.573331
z
" clip-path="url(#p0871b4ebf2)" style="fill: #d95f02"/>
   </g>
   <g id="patch_20">
    <path d="M 588.569686 203.734847
L 604.336454 203.734847
L 604.336454 222.458282
L 588.569686 222.458282
z
" clip-path="url(#p0871b4ebf2)" style="fill: #708238"/>
   </g>
   <g id="patch_21">
    <path d="M 654.264553 203.734847
L 670.031321 203.734847
L 670.031321 197.878958
L 654.264553 197.878958
z
" clip-path="url(#p0871b4ebf2)" style="fill: #708238"/>
   </g>
   <g id="patch_22">
    <path d="M 719.95942 203.734847
L 735.726188 203.734847
L 735.726188 211.447481
L 719.95942 211.447481
z
" clip-path="url(#p0871b4ebf2)" style="fill: #708238"/>
   </g>
   <g id="patch_23">
    <path d="M 785.654287 203.734847
L 801.421055 203.734847
L 801.421055 76.303707
L 785.654287 76.303707
z
" clip-path="url(#p0871b4ebf2)" style="fill: #708238"/>
   </g>
   <g id="patch_24">
    <path d="M 851.349153 203.734847
L 867.115921 203.734847
L 867.115921 180.407289
L 851.349153 180.407289
z
" clip-path="url(#p0871b4ebf2)" style="fill: #708238"/>
   </g>
   <g id="patch_25">
    <path d="M 917.04402 203.734847
L 932.810788 203.734847
L 932.810788 317.573331
L 917.04402 317.573331
z
" clip-path="url(#p0871b4ebf2)" style="fill: #708238"/>
   </g>
   <g id="matplotlib.axis_3">
    <g id="xtick_9">
     <g id="line2d_28">
      <g>
       <use xlink:href="#m2ff2eba125" x="580.686302" y="330.698739" style="stroke: #000000; stroke-width: 0.8"/>
      </g>
     </g>
     <g id="text_24">
      <text style="font-size: 9.5px; font-family: 'DejaVu Sans'" transform="translate(567.754033 354.509552) rotate(-20)">ARC-C</text>
     </g>
    </g>
    <g id="xtick_10">
     <g id="line2d_29">
      <g>
       <use xlink:href="#m2ff2eba125" x="646.381169" y="330.698739" style="stroke: #000000; stroke-width: 0.8"/>
      </g>
     </g>
     <g id="text_25">
      <text style="font-size: 9.5px; font-family: 'DejaVu Sans'" transform="translate(633.745307 354.293785) rotate(-20)">ARC-E</text>
     </g>
    </g>
    <g id="xtick_11">
     <g id="line2d_30">
      <g>
       <use xlink:href="#m2ff2eba125" x="712.076036" y="330.698739" style="stroke: #000000; stroke-width: 0.8"/>
      </g>
     </g>
     <g id="text_26">
      <text style="font-size: 9.5px; font-family: 'DejaVu Sans'" transform="translate(697.009636 356.063071) rotate(-20)">GSM8K</text>
     </g>
    </g>
    <g id="xtick_12">
     <g id="line2d_31">
      <g>
       <use xlink:href="#m2ff2eba125" x="777.770903" y="330.698739" style="stroke: #000000; stroke-width: 0.8"/>
      </g>
     </g>
     <g id="text_27">
      <text style="font-size: 9.5px; font-family: 'DejaVu Sans'" transform="translate(766.318576 353.432242) rotate(-20)">MBPP</text>
     </g>
    </g>
    <g id="xtick_13">
     <g id="line2d_32">
      <g>
       <use xlink:href="#m2ff2eba125" x="843.465769" y="330.698739" style="stroke: #000000; stroke-width: 0.8"/>
      </g>
     </g>
     <g id="text_28">
      <text style="font-size: 9.5px; font-family: 'DejaVu Sans'" transform="translate(831.076099 354.114572) rotate(-20)">MMLU</text>
     </g>
    </g>
    <g id="xtick_14">
     <g id="line2d_33">
      <g>
       <use xlink:href="#m2ff2eba125" x="909.160636" y="330.698739" style="stroke: #000000; stroke-width: 0.8"/>
      </g>
     </g>
     <g id="text_29">
      <text style="font-size: 9.5px; font-family: 'DejaVu Sans'" transform="translate(897.429465 353.636014) rotate(-20)">Tier-1</text>
     </g>
    </g>
   </g>
   <g id="matplotlib.axis_4">
    <g id="ytick_7">
     <g id="line2d_34">
      <path d="M 538.247418 310.458426
L 951.59952 310.458426
" clip-path="url(#p0871b4ebf2)" style="fill: none; stroke: #b0b0b0; stroke-opacity: 0.25; stroke-width: 0.8; stroke-linecap: square"/>
     </g>
     <g id="line2d_35">
      <g>
       <use xlink:href="#mb26b7bbba3" x="538.247418" y="310.458426" style="stroke: #000000; stroke-width: 0.8"/>
      </g>
     </g>
     <g id="text_30">
      <text style="font-size: 9.5px; font-family: 'DejaVu Sans'; text-anchor: end" x="531.247418" y="314.067313" transform="rotate(-0 531.247418 314.067313)">−7.5</text>
     </g>
    </g>
    <g id="ytick_8">
     <g id="line2d_36">
      <path d="M 538.247418 274.8839
L 951.59952 274.8839
" clip-path="url(#p0871b4ebf2)" style="fill: none; stroke: #b0b0b0; stroke-opacity: 0.25; stroke-width: 0.8; stroke-linecap: square"/>
     </g>
     <g id="line2d_37">
      <g>
       <use xlink:href="#mb26b7bbba3" x="538.247418" y="274.8839" style="stroke: #000000; stroke-width: 0.8"/>
      </g>
     </g>
     <g id="text_31">
      <text style="font-size: 9.5px; font-family: 'DejaVu Sans'; text-anchor: end" x="531.247418" y="278.492786" transform="rotate(-0 531.247418 278.492786)">−5.0</text>
     </g>
    </g>
    <g id="ytick_9">
     <g id="line2d_38">
      <path d="M 538.247418 239.309373
L 951.59952 239.309373
" clip-path="url(#p0871b4ebf2)" style="fill: none; stroke: #b0b0b0; stroke-opacity: 0.25; stroke-width: 0.8; stroke-linecap: square"/>
     </g>
     <g id="line2d_39">
      <g>
       <use xlink:href="#mb26b7bbba3" x="538.247418" y="239.309373" style="stroke: #000000; stroke-width: 0.8"/>
      </g>
     </g>
     <g id="text_32">
      <text style="font-size: 9.5px; font-family: 'DejaVu Sans'; text-anchor: end" x="531.247418" y="242.91826" transform="rotate(-0 531.247418 242.91826)">−2.5</text>
     </g>
    </g>
    <g id="ytick_10">
     <g id="line2d_40">
      <path d="M 538.247418 203.734847
L 951.59952 203.734847
" clip-path="url(#p0871b4ebf2)" style="fill: none; stroke: #b0b0b0; stroke-opacity: 0.25; stroke-width: 0.8; stroke-linecap: square"/>
     </g>
     <g id="line2d_41">
      <g>
       <use xlink:href="#mb26b7bbba3" x="538.247418" y="203.734847" style="stroke: #000000; stroke-width: 0.8"/>
      </g>
     </g>
     <g id="text_33">
      <text style="font-size: 9.5px; font-family: 'DejaVu Sans'; text-anchor: end" x="531.247418" y="207.343734" transform="rotate(-0 531.247418 207.343734)">0.0</text>
     </g>
    </g>
    <g id="ytick_11">
     <g id="line2d_42">
      <path d="M 538.247418 168.16032
L 951.59952 168.16032
" clip-path="url(#p0871b4ebf2)" style="fill: none; stroke: #b0b0b0; stroke-opacity: 0.25; stroke-width: 0.8; stroke-linecap: square"/>
     </g>
     <g id="line2d_43">
      <g>
       <use xlink:href="#mb26b7bbba3" x="538.247418" y="168.16032" style="stroke: #000000; stroke-width: 0.8"/>
      </g>
     </g>
     <g id="text_34">
      <text style="font-size: 9.5px; font-family: 'DejaVu Sans'; text-anchor: end" x="531.247418" y="171.769207" transform="rotate(-0 531.247418 171.769207)">2.5</text>
     </g>
    </g>
    <g id="ytick_12">
     <g id="line2d_44">
      <path d="M 538.247418 132.585794
L 951.59952 132.585794
" clip-path="url(#p0871b4ebf2)" style="fill: none; stroke: #b0b0b0; stroke-opacity: 0.25; stroke-width: 0.8; stroke-linecap: square"/>
     </g>
     <g id="line2d_45">
      <g>
       <use xlink:href="#mb26b7bbba3" x="538.247418" y="132.585794" style="stroke: #000000; stroke-width: 0.8"/>
      </g>
     </g>
     <g id="text_35">
      <text style="font-size: 9.5px; font-family: 'DejaVu Sans'; text-anchor: end" x="531.247418" y="136.194681" transform="rotate(-0 531.247418 136.194681)">5.0</text>
     </g>
    </g>
    <g id="ytick_13">
     <g id="line2d_46">
      <path d="M 538.247418 97.011268
L 951.59952 97.011268
" clip-path="url(#p0871b4ebf2)" style="fill: none; stroke: #b0b0b0; stroke-opacity: 0.25; stroke-width: 0.8; stroke-linecap: square"/>
     </g>
     <g id="line2d_47">
      <g>
       <use xlink:href="#mb26b7bbba3" x="538.247418" y="97.011268" style="stroke: #000000; stroke-width: 0.8"/>
      </g>
     </g>
     <g id="text_36">
      <text style="font-size: 9.5px; font-family: 'DejaVu Sans'; text-anchor: end" x="531.247418" y="100.620154" transform="rotate(-0 531.247418 100.620154)">7.5</text>
     </g>
    </g>
    <g id="ytick_14">
     <g id="line2d_48">
      <path d="M 538.247418 61.436741
L 951.59952 61.436741
" clip-path="url(#p0871b4ebf2)" style="fill: none; stroke: #b0b0b0; stroke-opacity: 0.25; stroke-width: 0.8; stroke-linecap: square"/>
     </g>
     <g id="line2d_49">
      <g>
       <use xlink:href="#mb26b7bbba3" x="538.247418" y="61.436741" style="stroke: #000000; stroke-width: 0.8"/>
      </g>
     </g>
     <g id="text_37">
      <text style="font-size: 9.5px; font-family: 'DejaVu Sans'; text-anchor: end" x="531.247418" y="65.045628" transform="rotate(-0 531.247418 65.045628)">10.0</text>
     </g>
    </g>
    <g id="text_38">
     <text style="font-size: 10px; font-family: 'DejaVu Sans'; text-anchor: middle" x="501.776403" y="186.319258" transform="rotate(-90 501.776403 186.319258)">Accuracy change from frozen base (points)</text>
    </g>
   </g>
   <g id="line2d_50">
    <path d="M 538.247418 203.734847
L 951.59952 203.734847
" clip-path="url(#p0871b4ebf2)" style="fill: none; stroke: #444444; stroke-linecap: square"/>
   </g>
   <g id="patch_26">
    <path d="M 538.247418 330.698739
L 538.247418 41.939777
" style="fill: none; stroke: #000000; stroke-width: 0.8; stroke-linejoin: miter; stroke-linecap: square"/>
   </g>
   <g id="patch_27">
    <path d="M 951.59952 330.698739
L 951.59952 41.939777
" style="fill: none; stroke: #000000; stroke-width: 0.8; stroke-linejoin: miter; stroke-linecap: square"/>
   </g>
   <g id="patch_28">
    <path d="M 538.247418 330.698739
L 951.59952 330.698739
" style="fill: none; stroke: #000000; stroke-width: 0.8; stroke-linejoin: miter; stroke-linecap: square"/>
   </g>
   <g id="patch_29">
    <path d="M 538.247418 41.939777
L 951.59952 41.939777
" style="fill: none; stroke: #000000; stroke-width: 0.8; stroke-linejoin: miter; stroke-linecap: square"/>
   </g>
   <g id="text_39">
    <text style="font-size: 8px; font-family: 'DejaVu Sans'; text-anchor: end; fill: #555555" x="947.465999" y="323.001685" transform="rotate(-0 947.465999 323.001685)">X marks registered loss-share stop; all panels are DEV-only</text>
   </g>
   <g id="text_40">
    <text style="font-size: 11.5px; font-family: 'DejaVu Sans'; text-anchor: middle" x="744.923469" y="35.939777" transform="rotate(-0 744.923469 35.939777)">Endpoint change by battery</text>
   </g>
   <g id="legend_2">
    <g id="patch_30">
     <path d="M 868.763036 56.048449
L 885.763036 56.048449
L 885.763036 50.098449
L 868.763036 50.098449
z
" style="fill: #2878b5"/>
    </g>
    <g id="text_41">
     <text style="font-size: 8.5px; font-family: 'DejaVu Sans'; text-anchor: start" x="892.563036" y="56.048449" transform="rotate(-0 892.563036 56.048449)">Main seed 0</text>
    </g>
    <g id="patch_31">
     <path d="M 868.763036 68.799113
L 885.763036 68.799113
L 885.763036 62.849113
L 868.763036 62.849113
z
" style="fill: #d95f02"/>
    </g>
    <g id="text_42">
     <text style="font-size: 8.5px; font-family: 'DejaVu Sans'; text-anchor: start" x="892.563036" y="68.799113" transform="rotate(-0 892.563036 68.799113)">Main seed 1</text>
    </g>
    <g id="patch_32">
     <path d="M 868.763036 81.549777
L 885.763036 81.549777
L 885.763036 75.599777
L 868.763036 75.599777
z
" style="fill: #708238"/>
    </g>
    <g id="text_43">
     <text style="font-size: 8.5px; font-family: 'DejaVu Sans'; text-anchor: start" x="892.563036" y="81.549777" transform="rotate(-0 892.563036 81.549777)">Slot seed 0</text>
    </g>
   </g>
  </g>
  <g id="text_44">
   <text style="font-weight: 700; font-size: 14px; font-family: 'DejaVu Sans'; text-anchor: middle" x="479.39976" y="17.837812" transform="rotate(-0 479.39976 17.837812)">P3.4: replicated positive task signal, interrupted by objective-allocation stops</text>
  </g>
 </g>
 <defs>
  <clipPath id="pa1001f7743">
   <rect x="43.30875" y="41.939777" width="413.352102" height="288.758962"/>
  </clipPath>
  <clipPath id="p0871b4ebf2">
   <rect x="538.247418" y="41.939777" width="413.352102" height="288.758962"/>
  </clipPath>
 </defs>
</svg>
